<svg width="162" height="39" viewBox="0 0 162 39" fill="none" xmlns="http://www.w3.org/2000/svg">
<g clip-path="url(#clip0_11520_48180)">
<path fill-rule="evenodd" clip-rule="evenodd" d="M69.8307 13.4853C69.7145 20.936 76.0125 27.1253 83.3535 26.9676C90.6945 27.1253 97.0693 20.936 96.9535 13.4853C97.0693 6.03453 90.6945 -0.154699 83.3535 0.0029883C76.0125 -0.154699 69.7145 6.03453 69.8307 13.4853ZM91.5829 13.4853C91.5829 18.4918 88.067 22.0398 83.3919 22.0398C78.6784 22.0398 75.2012 18.4918 75.2012 13.4853C75.2012 8.47869 78.6784 4.93073 83.3919 4.93073C88.067 4.93073 91.5829 8.55755 91.5829 13.4853ZM109.076 26.4944H126.685V21.685H114.292V0.47598H109.076V26.4944ZM61.7152 26.4944L51.2856 13.2487L61.1744 0.47598H55.263L48.3493 8.67573L41.3968 0.47598H35.447L45.4516 13.2487L34.9446 26.4944H40.8947L48.3493 17.861L55.8038 26.4944H61.7152Z" fill="url(#paint0_linear_11520_48180)"/>
<path fill-rule="evenodd" clip-rule="evenodd" d="M13.9343 0.0139765C21.092 0.0952619 27.2196 6.19433 27.106 13.508C27.2218 20.9641 20.8484 27.0186 13.5152 27H3.13328C1.45219 27 1.29084 27 2.31457 25.3706L3.39616 23.7454C3.67382 23.3283 3.61789 22.7658 3.29041 22.3899C1.21164 20.0036 -0.0508942 16.8853 0.00157408 13.508C-0.0766873 8.47023 2.77104 4.00874 6.88932 1.69334C8.74487 0.603348 10.9289 0 13.3188 0C13.5255 0 13.7306 0.00468753 13.9343 0.0139765ZM13.5538 22.7195C18.5442 22.7195 22.5896 18.5918 22.5896 13.5C22.5896 8.4082 18.5442 4.28049 13.5538 4.28049C8.56341 4.28049 4.51793 8.4082 4.51793 13.5C4.51793 18.5918 8.56341 22.7195 13.5538 22.7195Z" fill="url(#paint1_linear_11520_48180)"/>
<path fill-rule="evenodd" clip-rule="evenodd" d="M148.066 26.986C140.908 26.9047 134.78 20.8057 134.894 13.492C134.778 6.03592 141.152 -0.0186418 148.485 4.40126e-05L158.867 4.49385e-05C160.548 -1.29538e-07 160.709 4.50611e-05 159.686 1.62943L158.604 3.25457C158.326 3.67174 158.382 4.23419 158.71 4.61012C160.788 6.99642 162.051 10.1147 161.998 13.492C162.077 18.5298 159.229 22.9913 155.111 25.3067C153.255 26.3967 151.071 27 148.681 27C148.475 27 148.269 26.9953 148.066 26.986ZM148.446 4.28049C143.456 4.28049 139.41 8.4082 139.41 13.5C139.41 18.5918 143.456 22.7195 148.446 22.7195C153.437 22.7195 157.482 18.5918 157.482 13.5C157.482 8.4082 153.437 4.28049 148.446 4.28049Z" fill="url(#paint2_linear_11520_48180)"/>
<path d="M123 39.3242V32H125.676C126.431 32 127.02 32.166 127.443 32.498C127.87 32.8268 128.083 33.2842 128.083 33.8701C128.083 34.251 127.992 34.5863 127.81 34.876C127.627 35.1624 127.383 35.3757 127.077 35.5156C127.504 35.6328 127.837 35.8444 128.078 36.1504C128.319 36.4564 128.439 36.8324 128.439 37.2783C128.439 37.6885 128.339 38.0482 128.137 38.3574C127.935 38.6634 127.65 38.901 127.282 39.0703C126.918 39.2396 126.488 39.3242 125.993 39.3242H123ZM124.289 35.1201H125.607C125.979 35.1201 126.271 35.0306 126.486 34.8516C126.701 34.6693 126.809 34.4235 126.809 34.1143C126.809 33.8115 126.698 33.5723 126.477 33.3965C126.258 33.2207 125.959 33.1328 125.578 33.1328H124.289V35.1201ZM124.289 38.1914H125.681C125.974 38.1914 126.228 38.1475 126.442 38.0596C126.657 37.9684 126.823 37.8431 126.94 37.6836C127.061 37.5208 127.121 37.3304 127.121 37.1123C127.121 36.9007 127.066 36.7184 126.955 36.5654C126.844 36.4092 126.688 36.2904 126.486 36.209C126.285 36.1243 126.044 36.082 125.764 36.082H124.289V38.1914Z" fill="#94949C"/>
<path d="M134.136 39.3242V32H138.779V33.1328H135.425V35.0615H138.584V36.1895H135.425V38.1914H138.828V39.3242H134.136Z" fill="#94949C"/>
<path d="M147.771 39.3242H146.482V33.1328H144.255V32H149.993V33.1328H147.771V39.3242Z" fill="#94949C"/>
<path d="M155.738 39.3242H154.385L157.334 32H158.706L161.651 39.3242H160.298L159.629 37.6152H156.407L155.738 39.3242ZM156.831 36.4873H159.204L158.018 33.4551L156.831 36.4873Z" fill="#94949C"/>
</g>
<defs>
<linearGradient id="paint0_linear_11520_48180" x1="1.20699e-06" y1="27" x2="145.418" y2="-37.4276" gradientUnits="userSpaceOnUse">
<stop stop-color="#6464FF"/>
<stop offset="1" stop-color="#3A8DDA"/>
</linearGradient>
<linearGradient id="paint1_linear_11520_48180" x1="1.20699e-06" y1="27" x2="145.418" y2="-37.4276" gradientUnits="userSpaceOnUse">
<stop stop-color="#6464FF"/>
<stop offset="1" stop-color="#3A8DDA"/>
</linearGradient>
<linearGradient id="paint2_linear_11520_48180" x1="1.20699e-06" y1="27" x2="145.418" y2="-37.4276" gradientUnits="userSpaceOnUse">
<stop stop-color="#6464FF"/>
<stop offset="1" stop-color="#3A8DDA"/>
</linearGradient>
<clipPath id="clip0_11520_48180">
<rect width="162" height="39" fill="white"/>
</clipPath>
</defs>
</svg>
